<?xml version="1.0" standalone="no"?>
<!DOCTYPE svg PUBLIC "-//W3C//DTD SVG 20010904//EN"
 "http://www.w3.org/TR/2001/REC-SVG-20010904/DTD/svg10.dtd">
<svg version="1.0" xmlns="http://www.w3.org/2000/svg"
 width="900.000000pt" height="900.000000pt" viewBox="0 0 900.000000 900.000000"
 preserveAspectRatio="xMidYMid meet">

<g transform="translate(0.000000,900.000000) scale(0.100000,-0.100000)"
fill="#000000" stroke="none">
<path d="M4310 7964 c-528 -46 -928 -156 -1361 -375 -770 -389 -1361 -1036
-1682 -1844 -153 -383 -230 -760 -243 -1190 -33 -1045 409 -2055 1204 -2751
475 -416 1093 -708 1717 -813 228 -38 327 -46 590 -46 474 0 867 74 1290 242
908 360 1616 1068 1978 1978 168 422 242 815 242 1290 0 474 -74 867 -242
1290 -320 806 -913 1456 -1682 1844 -381 192 -732 299 -1176 357 -105 14 -541
26 -635 18z m404 -1729 c227 -66 486 -239 623 -417 63 -82 128 -211 152 -298
11 -41 30 -142 41 -224 24 -176 27 -190 52 -238 36 -72 75 -85 302 -98 199
-12 231 -24 266 -98 21 -44 21 -52 17 -566 -3 -449 -6 -531 -21 -596 -103
-444 -424 -762 -857 -850 -92 -19 -138 -20 -839 -20 -702 0 -747 1 -840 20
-413 84 -741 396 -844 805 -8 33 -20 110 -26 170 -13 143 -13 1295 0 1440 41
440 331 804 752 944 135 45 187 49 674 50 l462 1 86 -25z"/>
<path d="M3755 5356 c-130 -58 -162 -230 -61 -330 23 -24 59 -47 82 -54 53
-15 671 -17 727 -1 79 22 146 111 147 194 0 61 -41 139 -91 172 l-43 28 -365
2 c-288 2 -372 0 -396 -11z"/>
<path d="M3755 4111 c-83 -38 -134 -129 -120 -218 7 -51 55 -118 105 -148 34
-20 50 -20 699 -23 l665 -3 52 26 c34 17 61 40 80 68 25 37 29 51 29 114 0 63
-3 76 -30 114 -16 23 -48 52 -70 63 -39 21 -52 21 -705 23 -626 3 -667 2 -705
-16z"/>
</g>
</svg>
