<?xml version="1.0" standalone="no"?>
<!DOCTYPE svg PUBLIC "-//W3C//DTD SVG 20010904//EN"
 "http://www.w3.org/TR/2001/REC-SVG-20010904/DTD/svg10.dtd">
<svg version="1.0" xmlns="http://www.w3.org/2000/svg"
 width="32.000000pt" height="32.000000pt" viewBox="0 0 32.000000 32.000000"
 preserveAspectRatio="xMidYMid meet">

<g transform="translate(0.000000,32.000000) scale(0.100000,-0.100000)"
fill="#000000" stroke="none">
<path d="M165 286 c-36 -36 -31 -71 10 -71 52 0 75 77 27 93 -6 2 -23 -8 -37
-22z"/>
<path d="M76 274 c-21 -20 -20 -58 0 -75 14 -11 19 -10 35 10 22 27 24 52 7
69 -16 16 -23 15 -42 -4z"/>
<path d="M232 214 c-23 -16 -30 -58 -11 -69 34 -22 104 40 79 70 -16 19 -40
19 -68 -1z"/>
<path d="M54 166 c-17 -8 -34 -21 -37 -31 -9 -22 8 -52 32 -60 11 -3 23 -15
26 -26 16 -51 75 -43 94 12 32 93 -24 144 -115 105z"/>
<path d="M209 111 c-20 -16 -21 -21 -10 -35 17 -20 55 -21 75 0 19 19 20 26 4
42 -17 17 -42 15 -69 -7z"/>
</g>
</svg>
